<?xml version="1.0" encoding="utf-8"?>
<!-- Generator: Adobe Illustrator 22.0.1, SVG Export Plug-In . SVG Version: 6.00 Build 0)  -->
<svg version="1.1" id="FRAME" xmlns="http://www.w3.org/2000/svg" xmlns:xlink="http://www.w3.org/1999/xlink" x="0px" y="0px"
	 viewBox="0 0 1700.8 850.4" style="enable-background:new 0 0 1700.8 850.4;" xml:space="preserve">
<style type="text/css">
	.st0{fill:#EDEDED;}
	.st1{fill:#575756;}
	.st2{fill:#F9F9F9;}
	.st3{fill:#FFFFFF;}
	.st4{fill:#C9C9C9;}
	.st5{font-family:'ArialMT';}
	.st6{font-size:20px;}
</style>
<g id="BODY_3_">
	<g id="BODY_x5F_BACK">
		<rect x="628.4" y="267.8" class="st0" width="342.2" height="129.6"/>
		<path class="st1" d="M969.6,268.8v127.6H629.4V268.8H969.6 M971.6,266.8h-2H629.4h-2v2v127.6v2h2h340.2h2v-2V268.8V266.8
			L971.6,266.8z"/>
	</g>
	<g id="OUTPUT">
		<g id="OUTPUT_x5F_2">
			<rect x="855.7" y="310.8" class="st2" width="114.4" height="43.5"/>
			<path class="st1" d="M969.6,311.3v42.5H856.2v-42.5H969.6 M970.6,310.3h-1H856.2h-1v1v42.5v1h1h113.4h1v-1v-42.5V310.3
				L970.6,310.3z"/>
		</g>
		<g id="OUTPUT_x5F_1">
			<rect x="855.7" y="268.3" class="st2" width="114.4" height="43.5"/>
			<path class="st1" d="M969.6,268.8v42.5H856.2v-42.5H969.6 M970.6,267.8h-1H856.2h-1v1v42.5v1h1h113.4h1v-1v-42.5V267.8
				L970.6,267.8z"/>
		</g>
		<g>
			<rect x="628.9" y="408.9" class="st3" width="341.2" height="156"/>
			<path class="st4" d="M969.6,409.4v155H629.4v-155H969.6 M970.6,408.4h-1H629.4h-1v1v155v1h1h340.2h1v-1v-155V408.4L970.6,408.4z"
				/>
		</g>
	</g>
	<g id="INPUT">
		<g id="INPUT_x5F_2">
			<rect x="628.9" y="310.8" class="st2" width="114.4" height="43.5"/>
			<path class="st1" d="M742.8,311.3v42.5H629.4v-42.5H742.8 M743.8,310.3h-1H629.4h-1v1v42.5v1h1h113.4h1v-1v-42.5V310.3
				L743.8,310.3z"/>
		</g>
		<g id="INPUT_x5F_1">
			<rect x="628.9" y="268.3" class="st2" width="114.4" height="43.5"/>
			<path class="st1" d="M742.8,268.8v42.5H629.4v-42.5H742.8 M743.8,267.8h-1H629.4h-1v1v42.5v1h1h113.4h1v-1v-42.5V267.8
				L743.8,267.8z"/>
		</g>
	</g>
</g>
<g id="HEAD_1_">
	<g id="HEAD_x5F_BACK">
		<rect x="628.4" y="225.3" class="st1" width="342.2" height="44.5"/>
		<path class="st1" d="M969.6,226.3v42.5H629.4v-42.5H969.6 M971.6,224.3h-2H629.4h-2v2v42.5v2h2h340.2h2v-2v-42.5V224.3
			L971.6,224.3z"/>
	</g>
	<text id="HEAD_x5F_TEXT" transform="matrix(1 0 0 1 737.5011 257.3327)" class="st3 st5 st6">HELLO WORLD</text>
</g>
</svg>
